<?xml version="1.0" encoding="UTF-8"?>
<svg version="1.1" xmlns="http://www.w3.org/2000/svg" width="782" height="222">
<path d="M0 0 C8.91 0 17.82 0 27 0 C35.41173299 18.19765998 43.78093099 36.40849302 51.875 54.75 C58.06261514 68.76761116 64.4496588 82.68518564 70.91583252 96.57629395 C76.99176482 109.63077465 82.95373869 122.72711315 88.81640625 135.87890625 C92.08183802 143.20010938 95.3934339 150.49999288 98.71347046 157.79656982 C99.67401019 159.9078492 100.63359965 162.01955831 101.59301758 164.13134766 C104.43590031 170.38577309 107.28877704 176.63506642 110.171875 182.87109375 C110.64407471 183.89662354 111.11627441 184.92215332 111.6027832 185.97875977 C112.4663138 187.85255956 113.3343458 189.72429426 114.20776367 191.59350586 C114.5813501 192.4056958 114.95493652 193.21788574 115.33984375 194.0546875 C115.66331787 194.75062012 115.98679199 195.44655273 116.32006836 196.16357422 C117 198 117 198 117 201 C65.85 201 14.7 201 -38 201 C-34.59412273 190.78236818 -30.24264069 180.89949494 -26 171 C21.52 170.505 21.52 170.505 70 170 C67.69 165.05 65.38 160.1 63 155 C61.71766214 152.23672356 60.43627706 149.4731626 59.16015625 146.70703125 C58.83643036 146.00534317 58.51270447 145.30365509 58.1791687 144.58070374 C57.13935881 142.32505827 56.10067516 140.06889831 55.0625 137.8125 C54.51567062 136.624216 54.51567062 136.624216 53.95779419 135.41192627 C48.52900462 123.60498006 43.19470148 111.75925556 37.9375 99.875 C32.38367183 87.32129445 26.76198715 74.80080488 21.0625 62.3125 C20.5350972 61.15388458 20.5350972 61.15388458 19.99703979 59.97186279 C19.012219 57.80952814 18.02427905 55.64865079 17.03515625 53.48828125 C16.7411795 52.84225449 16.44720276 52.19622772 16.14431763 51.53062439 C14.89709968 48.55505213 14.89709968 48.55505213 13 46 C2.03867759 69.4829455 -8.73704379 93.0475129 -19.35546875 116.6875 C-19.72511749 117.51042542 -20.09476624 118.33335083 -20.47561646 119.18121338 C-21.98676652 122.54565761 -23.49791341 125.91010317 -25.00854492 129.27478027 C-31.3426423 143.37820377 -37.76496108 157.43951666 -44.25537109 171.47167969 C-44.91402659 172.89765272 -45.57239875 174.32375667 -46.23046875 175.75 C-46.70178223 176.77133026 -46.70178223 176.77133026 -47.18261719 177.81329346 C-49.81153886 183.53597796 -52.3401618 189.30055457 -54.8210907 195.08886719 C-56.89492213 199.89492213 -56.89492213 199.89492213 -58 201 C-60.44830426 201.08843793 -62.86820599 201.11528752 -65.31640625 201.09765625 C-66.04746078 201.0962413 -66.77851532 201.09482635 -67.53172302 201.09336853 C-69.87535632 201.08775408 -72.21889539 201.07519922 -74.5625 201.0625 C-76.14778508 201.05748686 -77.73307166 201.05292363 -79.31835938 201.04882812 C-83.2122761 201.03777997 -87.10612205 201.02050572 -91 201 C-89.44630064 196.1952365 -87.51890647 191.72189044 -85.3125 187.1875 C-81.13989365 178.48693272 -77.11085157 169.72465096 -73.125 160.9375 C-72.81161682 160.24701569 -72.49823364 159.55653137 -72.175354 158.84512329 C-68.25363386 150.20222784 -64.3459282 141.55301937 -60.44140625 132.90234375 C-58.85706389 129.39309677 -57.27235551 125.88401525 -55.6875 122.375 C-55.28882721 121.49204254 -54.89015442 120.60908508 -54.47940063 119.69937134 C-48.29107381 105.99901725 -42.01293661 92.34235152 -35.68997192 78.70370483 C-29.88230446 66.16829785 -24.21584093 53.57573184 -18.63150024 40.93939209 C-12.56887683 27.22131175 -6.32548215 13.59978662 0 0 Z " fill="#020202" transform="translate(250,13)"/>
<path d="M0 0 C48.51 0 97.02 0 147 0 C147 9.9 147 19.8 147 30 C109.38 30 71.76 30 33 30 C33 48.48 33 66.96 33 86 C66.66 86 100.32 86 135 86 C135 96.23 135 106.46 135 117 C101.34 117 67.68 117 33 117 C33 144.06 33 171.12 33 199 C22.11 199 11.22 199 0 199 C0 133.33 0 67.66 0 0 Z " fill="#020202" transform="translate(623,15)"/>
<path d="M0 0 C53.13 0 106.26 0 161 0 C161 10.89 161 21.78 161 33 C139.55 33 118.1 33 96 33 C96 87.78 96 142.56 96 199 C86.1 199 76.2 199 66 199 C66 144.22 66 89.44 66 33 C44.22 33 22.44 33 0 33 C0 22.11 0 11.22 0 0 Z " fill="#010101" transform="translate(362,15)"/>
<path d="M0 0 C10.23 0 20.46 0 31 0 C31 55.44 31 110.88 31 168 C66.31 168.33 101.62 168.66 138 169 C138 178.9 138 188.8 138 199 C92.46 199 46.92 199 0 199 C0 133.33 0 67.66 0 0 Z " fill="#010101" transform="translate(11,15)"/>
<path d="M0 0 C10.56 0 21.12 0 32 0 C32 65.67 32 131.34 32 199 C21.44 199 10.88 199 0 199 C0 133.33 0 67.66 0 0 Z " fill="#020202" transform="translate(555,15)"/>
</svg>
